<?xml version="1.0" encoding="utf-8"?>
<svg version="1.1" id="Capa_1" xmlns="http://www.w3.org/2000/svg" xmlns:xlink="http://www.w3.org/1999/xlink" x="0px" y="0px"
	 viewBox="0 0 40 40" style="enable-background:new 0 0 40 40;" xml:space="preserve">
<style type="text/css">
	.st0{fill:#1CA56D;}
</style>
<g>
	<path class="st0" d="M20,0C9,0,0,9,0,20s9,20,20,20c11,0,20-9,20-20S31,0,20,0z M28.8,17.9l-8.6,8.6c-0.6,0.6-1.4,0.9-2.2,0.9
		c-0.8,0-1.6-0.3-2.2-0.9l-4.8-4.8c-1.2-1.2-1.2-3.1,0-4.3c1.2-1.2,3.1-1.2,4.3,0l2.6,2.6l6.4-6.4c1.2-1.2,3.1-1.2,4.3,0
		C30,14.8,30,16.7,28.8,17.9z"/>
</g>
</svg>
